# xmcd
#
# Track frame offsets: 
#        150
#        11547
#        29107
#        42813
#        56386
#        69026
#        78351
#        91852
#        106494
#        120217
#        134852
#        150108
#        163872
#        175845
#        189099
#        204455
#        215346
#        227790
#        242979
#        256197
#        270147
#        283052
#
# Disc length: 3953 seconds
#
# Revision: 0
# Processed by: cddbd v1.5.2PL0 Copyright (c) Steve Scherf et al.
# Submitted via: ExactAudioCopy v1.1
#
DISCID=1c0f6f16
DTITLE=Various Artist - 60 Jaar Eurovisie Songfestival - CD 3
DYEAR=2015
DGENRE=Eurovision
TTITLE0=Domenico Modugno - Nel Blu Dipinto Di Blu (Volare)
TTITLE1=Umberto Tozzi and Raf - Gente Di Mare
TTITLE2=Johnny Logan - Hold Me Now
TTITLE3=Cliff Richard - Power To All Our Friends
TTITLE4=The Shadows - Let Me Be The One
TTITLE5=The Allisons - Are You Sure
TTITLE6=Séverine - Un Banc, Un Arbre, Une Rue
TTITLE7=Amina - Le Dernier Qui A Parlé
TTITLE8=Jacqueline Boyer - Tom Pillibi
TTITLE9=Gigliola Cinquetti - Non Ho L'Età (Per Amarti)
TTITLE10=Mocedades - Eres Tú
TTITLE11=Marie Myriam - L'Oiseau Et L'Enfant
TTITLE12=Anne-Marie David - Tu Te Reconnaîtras
TTITLE13=Sandra and Andres - Als Het Om De Liefde Gaat
TTITLE14=Lenny Kuhr - De Troubadour
TTITLE15=Teach-In - Ding-A-Dong
TTITLE16=The New Seekers - Beg, Steal Or Borrow
TTITLE17=Gina G - Ooh Aah... Just A Little Bit
TTITLE18=Carola - Love Isn't Love
TTITLE19=Herrey's - Diggi-Loo Diggi-Ley
TTITLE20=Katrina And The Waves - Love Shine A Light
TTITLE21=Lordi - Hard Rock Hallelujah
EXTD=
EXTT0=
EXTT1=
EXTT2=
EXTT3=
EXTT4=
EXTT5=
EXTT6=
EXTT7=
EXTT8=
EXTT9=
EXTT10=
EXTT11=
EXTT12=
EXTT13=
EXTT14=
EXTT15=
EXTT16=
EXTT17=
EXTT18=
EXTT19=
EXTT20=
EXTT21=
PLAYORDER=
